# xmcd CD database file generated by OrangeCD 6.4
#
# Track frame offsets:
#	150
#	8582
#	32353
#	49529
#	58100
#	78197
#	113251
#	128974
#	143537
#	149723
#	195566
#	206488
#	225888
#	243912
#	265057
#
# Disc length: 3771 seconds
#
# Revision: 0
# Processed by: cddbd v1.5.2PL0 Copyright (c) Steve Scherf et al.
# Submitted via: OrangeCD 6.4
#
DISCID=b50eb90f
DTITLE=Jimi Hendrix - Studio Sessions Volume. 1
DYEAR=2008
DGENRE=Blues Rock
TTITLE0=EXP
TTITLE1=Bold As Love
TTITLE2=Hear My Train A' Comin
TTITLE3=Dance
TTITLE4=Long Hot Summer Night
TTITLE5=1983
TTITLE6=Angel
TTITLE7=Cherokee Mist
TTITLE8=Hear My Train A' Comin
TTITLE9=Voodoo Chile
TTITLE10=Cherokee Mist
TTITLE11=Gypsy Eyes
TTITLE12=All Along The Watchtower
TTITLE13=Have You Ever Been (To Electric Ladyland)
TTITLE14=Dance
EXTD=
EXTT0=
EXTT1=
EXTT2=
EXTT3=
EXTT4=
EXTT5=
EXTT6=
EXTT7=
EXTT8=
EXTT9=
EXTT10=
EXTT11=
EXTT12=
EXTT13=
EXTT14=
PLAYORDER=
